<svg height="412pt" viewBox="0 -44 412 412" width="412pt" xmlns="http://www.w3.org/2000/svg"><path d="m406 37.578125c0 17.441406-14.140625 31.578125-31.578125 31.578125-17.441406 0-31.582031-14.136719-31.582031-31.578125s14.140625-31.582031 31.582031-31.582031c17.4375 0 31.578125 14.140625 31.578125 31.582031zm0 0" fill="#6fe3ff"/><path d="m342.839844 149.15625c34.878906 0 63.15625 28.277344 63.15625 63.15625s-28.277344 63.15625-63.15625 63.15625zm0 0" fill="#f8ec7d"/><path d="m107.75 107.046875h205.089844c16.570312 0 30 13.433594 30 30v150.53125c0 16.566406-13.429688 30-30 30h-276.839844c-16.570312 0-30-13.433594-30-30v-150.53125c0-16.566406 13.429688-30 30-30zm177.339844 111.929687v-16.660156c0-11.042968-8.953125-20-20-20s-20 8.957032-20 20v16.660156zm-70.667969 31.929688h-80c0 22.09375 17.90625 40 40 40 22.089844 0 40-17.90625 40-40zm-110.671875-31.929688v-16.660156c0-11.042968-8.953125-20-20-20s-20 8.957032-20 20v16.660156zm0 0" fill="#e48e66"/><g fill="#f8ec7d"><path d="m285.089844 202.316406v16.660156h-40v-16.660156c0-11.042968 8.953125-20 20-20s20 8.957032 20 20zm0 0"/><path d="m241.089844 77.117188v29.929687h-133.339844v-29.929687c0-5.523438 4.476562-10 10-10h113.339844c5.523437 0 10 4.476562 10 10zm0 0"/><path d="m134.421875 250.90625h80c0 22.09375-17.910156 40-40 40-22.09375 0-40-17.90625-40-40zm0 0"/><path d="m103.75 202.316406v16.660156h-40v-16.660156c0-11.042968 8.953125-20 20-20s20 8.957032 20 20zm0 0"/></g><path d="m412 37.578125c0-19.976563-15.628906-36.457031-35.574219-37.5234375-19.945312-1.0664065-37.242187 13.6562505-39.371093 33.5156245-2.132813 19.859376 11.648437 37.917969 31.367187 41.109376v73.40625c-6.265625-2.5-12.863281-4.066407-19.582031-4.644532v-6.394531c-.023438-19.871094-16.128906-35.976563-36-36h-65.75v-23.929687c-.011719-8.832032-7.167969-15.988282-16-16h-51.089844v-23.328126c0-3.316406-2.6875-6-6-6s-6 2.683594-6 6v23.328126h-50.25c-8.832031.011718-15.988281 7.167968-16 16v23.929687h-65.75c-19.875.023437-35.9765625 16.128906-36 36v150.53125c.0234375 19.871094 16.125 35.976563 36 36h276.839844c19.871094-.023437 35.976562-16.128906 36-36v-6.390625c29.425781-2.542969 53.980468-23.503906 61.113281-52.164062 7.132813-28.65625-4.734375-58.683594-29.53125-74.722657v-79.628906c18.1875-2.964844 31.554687-18.664063 31.578125-37.09375zm-298.25 39.539063c0-2.207032 1.789062-4 4-4h113.339844c2.210937 0 4 1.792968 4 4v23.929687h-121.339844zm223.089844 210.460937c-.015625 13.25-10.75 23.984375-24 24h-276.839844c-13.25-.015625-23.984375-10.75-24-24v-150.53125c.015625-13.246094 10.75-23.984375 24-24h276.839844c13.25.015625 23.984375 10.753906 24 24zm63.160156-75.261719c-.039062 29.230469-22.09375 53.738282-51.160156 56.839844v-113.683594c29.066406 3.105469 51.125 27.613282 51.160156 56.84375zm-51.160156-174.738281c0-14.128906 11.453125-25.582031 25.582031-25.582031 14.125 0 25.578125 11.453125 25.578125 25.582031s-11.453125 25.578125-25.578125 25.578125c-14.121094-.015625-25.566406-11.457031-25.582031-25.578125zm0 0" fill="#63316d"/><path d="m83.75 176.316406c-14.351562.015625-25.984375 11.648438-26 26v16.660156c0 3.316407 2.6875 6 6 6h40c3.3125 0 6-2.683593 6-6v-16.660156c-.003906-14.355468-11.640625-25.996094-26-26zm14 36.660156h-28v-10.660156c.003906-5.660156 3.414062-10.761718 8.644531-12.925781 5.234375-2.164063 11.253907-.96875 15.253907 3.035156 2.636718 2.617188 4.113281 6.179688 4.101562 9.890625zm0 0" fill="#63316d"/><path d="m265.089844 176.316406c-14.351563.015625-25.984375 11.648438-26 26v16.660156c0 3.316407 2.6875 6 6 6h40c3.3125 0 6-2.683593 6-6v-16.660156c-.003906-14.355468-11.640625-25.996094-26-26zm14 36.660156h-28v-10.660156c.003906-5.660156 3.414062-10.761718 8.644531-12.925781 5.234375-2.167969 11.253906-.96875 15.253906 3.035156 2.636719 2.617188 4.113281 6.179688 4.101563 9.890625zm0 0" fill="#63316d"/><path d="m214.421875 244.90625h-80c-3.316406 0-6 2.6875-6 6 0 25.40625 20.59375 46 46 46 25.402344 0 46-20.59375 46-46 0-3.3125-2.6875-6-6-6zm-15.964844 30.039062c-8.949219 8.953126-22.136719 12.1875-34.214843 8.402344-12.082032-3.789062-21.054688-13.976562-23.292969-26.441406h66.949219c-1.214844 6.84375-4.511719 13.140625-9.441407 18.039062zm0 0" fill="#63316d"/></svg>